<svg width="158" height="160" viewBox="0 0 158 160" fill="none" xmlns="http://www.w3.org/2000/svg">
<g filter="url(#filter0_d_386_3383)">
<path d="M75.2694 3.73063L5.73062 73.2694C3.67026 75.3297 3.67026 78.6703 5.73062 80.7306L75.2694 150.269C77.3297 152.33 80.6703 152.33 82.7306 150.269L152.269 80.7306C154.33 78.6703 154.33 75.3297 152.269 73.2694L82.7306 3.73062C80.6703 1.67026 77.3297 1.67026 75.2694 3.73063Z" fill="#78FFFF"/>
<path d="M77.1347 11.7141L13.7142 75.1347C12.684 76.1649 12.684 77.8351 13.7142 78.8653L77.1347 142.286C78.1649 143.316 79.8352 143.316 80.8654 142.286L144.286 78.8653C145.316 77.8351 145.316 76.1649 144.286 75.1347L80.8654 11.7141C79.8352 10.684 78.1649 10.684 77.1347 11.7141Z" fill="#00DDEC"/>
<path d="M76.8299 17.236L19.627 74.4389C18.5968 75.4691 18.5968 77.1393 19.627 78.1695C20.6572 79.1997 22.3275 79.1997 23.3576 78.1695L80.5605 20.9667C81.5907 19.9365 81.5907 18.2662 80.5605 17.236C79.5303 16.2059 77.8601 16.2059 76.8299 17.236Z" fill="#C5FCF5"/>
<g style="mix-blend-mode:multiply" opacity="0.6">
<path d="M144.622 72.1987L74.1977 142.623C72.7908 144.03 70.786 144.487 68.9922 143.995L75.2617 150.264C77.3193 152.322 80.6607 152.322 82.7271 150.264L152.263 80.7281C154.321 78.6705 154.321 75.3291 152.263 73.2627L145.994 66.9932C146.486 68.787 146.038 70.7918 144.622 72.1987Z" fill="#2AC4C4"/>
</g>
<circle cx="79" cy="77" r="25" fill="white"/>
</g>
<defs>
<filter id="filter0_d_386_3383" x="0.185303" y="2.18555" width="157.629" height="157.629" filterUnits="userSpaceOnUse" color-interpolation-filters="sRGB">
<feFlood flood-opacity="0" result="BackgroundImageFix"/>
<feColorMatrix in="SourceAlpha" type="matrix" values="0 0 0 0 0 0 0 0 0 0 0 0 0 0 0 0 0 0 127 0" result="hardAlpha"/>
<feOffset dy="4"/>
<feGaussianBlur stdDeviation="2"/>
<feComposite in2="hardAlpha" operator="out"/>
<feColorMatrix type="matrix" values="0 0 0 0 0 0 0 0 0 0 0 0 0 0 0 0 0 0 0.25 0"/>
<feBlend mode="normal" in2="BackgroundImageFix" result="effect1_dropShadow_386_3383"/>
<feBlend mode="normal" in="SourceGraphic" in2="effect1_dropShadow_386_3383" result="shape"/>
</filter>
</defs>
</svg>
