<svg width="49" height="15" viewBox="0 0 49 15" fill="none" xmlns="http://www.w3.org/2000/svg">
<rect width="49" height="15" rx="7.5" fill="#00DDEC"/>
<path d="M12.207 12.2168C13.0391 12.2168 13.7598 12.0371 14.3691 11.6777C14.9785 11.3145 15.4473 10.8008 15.7754 10.1367C16.1074 9.47266 16.2734 8.68555 16.2734 7.77539V7.76367C16.2734 6.85352 16.1074 6.06641 15.7754 5.40234C15.4434 4.73828 14.9727 4.22656 14.3633 3.86719C13.7578 3.50781 13.0391 3.32812 12.207 3.32812C11.3789 3.32812 10.6602 3.50781 10.0508 3.86719C9.44141 4.22656 8.96875 4.73828 8.63281 5.40234C8.30078 6.0625 8.13477 6.84961 8.13477 7.76367V7.77539C8.13477 8.68555 8.29883 9.47266 8.62695 10.1367C8.95898 10.8008 9.42969 11.3145 10.0391 11.6777C10.6484 12.0371 11.3711 12.2168 12.207 12.2168ZM12.207 10.7168C11.7422 10.7168 11.3398 10.5957 11 10.3535C10.6641 10.1113 10.4023 9.76953 10.2148 9.32812C10.0312 8.88672 9.93945 8.36914 9.93945 7.77539V7.76367C9.93945 7.16602 10.0332 6.64844 10.2207 6.21094C10.4082 5.76953 10.6719 5.42969 11.0117 5.19141C11.3516 4.94922 11.75 4.82812 12.207 4.82812C12.6641 4.82812 13.0625 4.94922 13.4023 5.19141C13.7422 5.42969 14.0039 5.76953 14.1875 6.21094C14.375 6.64844 14.4688 7.16602 14.4688 7.76367V7.77539C14.4688 8.36914 14.375 8.88672 14.1875 9.32812C14.0039 9.76953 13.7422 10.1113 13.4023 10.3535C13.0625 10.5957 12.6641 10.7168 12.207 10.7168ZM17.9551 12H19.7246V8.90625H21.0898C21.1016 8.90625 21.1152 8.90625 21.1309 8.90625C21.1465 8.90625 21.1602 8.90625 21.1719 8.90625L22.748 12H24.752L22.9707 8.64258C23.4551 8.45117 23.8301 8.14062 24.0957 7.71094C24.3652 7.27734 24.5 6.78906 24.5 6.24609V6.23438C24.5 5.67969 24.3809 5.20117 24.1426 4.79883C23.9082 4.39648 23.5645 4.08789 23.1113 3.87305C22.6621 3.6543 22.1172 3.54492 21.4766 3.54492H17.9551V12ZM19.7246 7.61719V4.92773H21.2598C21.7051 4.92773 22.0547 5.04883 22.3086 5.29102C22.5625 5.5332 22.6895 5.85938 22.6895 6.26953V6.28125C22.6895 6.69922 22.5645 7.02734 22.3145 7.26562C22.0684 7.5 21.7246 7.61719 21.2832 7.61719H19.7246ZM28.3379 12H30.1074V5.00391H32.6445V3.54492H25.8008V5.00391H28.3379V12ZM34.209 12H35.9785V8.90625H37.3438C37.3555 8.90625 37.3691 8.90625 37.3848 8.90625C37.4004 8.90625 37.4141 8.90625 37.4258 8.90625L39.002 12H41.0059L39.2246 8.64258C39.709 8.45117 40.084 8.14062 40.3496 7.71094C40.6191 7.27734 40.7539 6.78906 40.7539 6.24609V6.23438C40.7539 5.67969 40.6348 5.20117 40.3965 4.79883C40.1621 4.39648 39.8184 4.08789 39.3652 3.87305C38.916 3.6543 38.3711 3.54492 37.7305 3.54492H34.209V12ZM35.9785 7.61719V4.92773H37.5137C37.959 4.92773 38.3086 5.04883 38.5625 5.29102C38.8164 5.5332 38.9434 5.85938 38.9434 6.26953V6.28125C38.9434 6.69922 38.8184 7.02734 38.5684 7.26562C38.3223 7.5 37.9785 7.61719 37.5371 7.61719H35.9785Z" fill="white"/>
</svg>
