<svg width="41" height="15" viewBox="0 0 41 15" fill="none" xmlns="http://www.w3.org/2000/svg">
<rect width="41" height="15" rx="7.5" fill="#FF0B63"/>
<path d="M7.83789 12H9.69531L11.7637 5.23242H12.2793V3.54492H10.7734L7.83789 12ZM9.4082 9.94922H14.1836L13.75 8.625H9.8418L9.4082 9.94922ZM13.9316 12H15.7949L12.8535 3.54492H11.8691V5.23242L13.9316 12ZM17.2305 12H20.5586C21.4023 12 22.1191 11.834 22.709 11.502C23.2988 11.166 23.748 10.6797 24.0566 10.043C24.3691 9.40625 24.5254 8.63281 24.5254 7.72266V7.71094C24.5254 6.82812 24.3691 6.07617 24.0566 5.45508C23.7441 4.83398 23.293 4.36133 22.7031 4.03711C22.1133 3.70898 21.3984 3.54492 20.5586 3.54492H17.2305V12ZM19 10.541V5.00391H20.2773C20.7891 5.00391 21.2266 5.11133 21.5898 5.32617C21.957 5.53711 22.2363 5.84766 22.4277 6.25781C22.623 6.66406 22.7207 7.1582 22.7207 7.74023V7.75195C22.7207 8.34961 22.625 8.85742 22.4336 9.27539C22.2461 9.68945 21.9707 10.0039 21.6074 10.2188C21.2441 10.4336 20.8008 10.541 20.2773 10.541H19ZM28.1641 12H30.3438L33.1621 3.54492H31.1699L29.3066 10.0312H29.2012L27.332 3.54492H25.3457L28.1641 12Z" fill="white"/>
</svg>
