<svg width="27" height="16" viewBox="0 0 27 16" fill="none" xmlns="http://www.w3.org/2000/svg">
<path d="M2.32227 15.2441C3.10352 15.2441 3.5625 14.9707 4.05078 14.2676L6.50195 10.752H6.58984L9.1582 14.2188C9.69531 14.9414 10.2031 15.2441 10.9551 15.2441C12.0977 15.2441 12.8887 14.4824 12.8887 13.3887C12.8887 12.8125 12.7227 12.3438 12.293 11.7969L9.27539 7.95898V7.88086L12.3809 3.96484C12.8008 3.4375 12.957 2.98828 12.957 2.42188C12.957 1.43555 12.0195 0.664062 10.9453 0.664062C10.1445 0.664062 9.73438 0.957031 9.29492 1.63086L6.82422 5.40039H6.74609L4.39258 1.77734C3.91406 1.03516 3.31836 0.664062 2.54688 0.664062C1.33594 0.664062 0.466797 1.47461 0.466797 2.61719C0.466797 3.18359 0.623047 3.65234 1.12109 4.29688L3.86523 7.86133V7.93945L0.984375 11.8652C0.544922 12.4609 0.388672 12.9102 0.388672 13.4375C0.388672 14.4531 1.22852 15.2441 2.32227 15.2441ZM16.5879 15.2441C17.9062 15.2441 18.6582 14.4629 18.6582 13.0762V11.1523H20.6699C23.9609 11.1523 26.1973 9.15039 26.1973 6.04492C26.1973 2.91016 24.0879 0.908203 20.9531 0.908203H16.5879C15.2695 0.908203 14.5176 1.68945 14.5176 3.07617V13.0762C14.5176 14.4629 15.2695 15.2441 16.5879 15.2441ZM18.6582 8.0957V4.02344H19.8496C21.1973 4.02344 22.0176 4.7168 22.0176 6.05469C22.0176 7.40234 21.1973 8.0957 19.8203 8.0957H18.6582Z" fill="#21E7F2"/>
</svg>
