<svg width="122" height="123" viewBox="0 0 122 123" fill="none" xmlns="http://www.w3.org/2000/svg">
<rect x="13" y="62.7019" width="73.1175" height="73.1175" transform="rotate(-45 13 62.7019)" fill="#FF2173"/>
<rect y="104.904" width="25.3198" height="25.3198" transform="rotate(-45 0 104.904)" fill="#FF619F"/>
<rect x="86" y="17.9038" width="25.3198" height="25.3198" transform="rotate(-45 86 17.9038)" fill="#FF64A2"/>
<rect y="17.9038" width="25.3198" height="25.3198" transform="rotate(-45 0 17.9038)" fill="#FF64A2"/>
<rect x="86" y="103.904" width="25.3198" height="25.3198" transform="rotate(-45 86 103.904)" fill="#FF64A2"/>
<path d="M49.0186 77.3545C51.4648 77.3545 53.1348 76.4023 54.5703 74.8789L57.0898 72.125C57.4561 71.7441 57.749 71.5537 58.2178 71.5537H71.7822C72.2656 71.5537 72.5439 71.7441 72.9102 72.125L75.4443 74.8789C76.8799 76.4023 78.5352 77.3545 80.9961 77.3545C84.4531 77.3545 86.958 75.0986 86.958 71.3047C86.958 69.6641 86.6357 67.8184 86.0352 65.8262C85.1123 62.7646 83.5449 58.6631 82.0508 55.5283C80.7764 52.833 80 51.3535 76.6016 50.5918C73.6719 49.9326 69.7314 49.5078 65 49.5078C60.2686 49.5078 56.3281 49.9326 53.4131 50.5918C50.0146 51.3535 49.2236 52.833 47.9492 55.5283C46.4551 58.6631 44.8877 62.7646 43.9648 65.8262C43.3789 67.8184 43.042 69.6641 43.042 71.3047C43.042 75.0986 45.5469 77.3545 49.0186 77.3545ZM52.8857 60.7139C52.8857 59.8203 53.4717 59.2344 54.4092 59.2344H56.6064V57.1543C56.6064 56.2021 57.1924 55.5869 58.1152 55.5869C59.0234 55.5869 59.624 56.2021 59.624 57.1543V59.2344H61.6748C62.6855 59.2344 63.3008 59.8203 63.3008 60.7139C63.3008 61.6367 62.6855 62.208 61.6748 62.208H59.624V64.3027C59.624 65.2549 59.0234 65.8555 58.1152 65.8555C57.1924 65.8555 56.6064 65.2549 56.6064 64.3027V62.208H54.4092C53.4717 62.208 52.8857 61.6367 52.8857 60.7139ZM71.8701 58.3994C71.8701 57.125 72.8662 56.1289 74.1406 56.1289C75.415 56.1289 76.4111 57.125 76.4111 58.3994C76.4111 59.6885 75.415 60.6553 74.1406 60.6553C72.8662 60.6553 71.8701 59.6885 71.8701 58.3994ZM67.4463 62.8965C67.4463 61.6221 68.457 60.626 69.7168 60.626C71.0059 60.626 71.9873 61.6221 71.9873 62.8965C71.9873 64.1709 71.0059 65.1523 69.7168 65.1523C68.457 65.1523 67.4463 64.1709 67.4463 62.8965Z" fill="white"/>
</svg>
