<svg width="52" height="15" viewBox="0 0 52 15" fill="none" xmlns="http://www.w3.org/2000/svg">
<rect width="52" height="15" rx="7.5" fill="#FFBC0F"/>
<path d="M11.9609 12.2168C12.6445 12.2168 13.25 12.0918 13.7773 11.8418C14.3047 11.5879 14.7305 11.2383 15.0547 10.793C15.3789 10.3477 15.5723 9.83008 15.6348 9.24023V9.16992H13.9121L13.9004 9.22266C13.8418 9.52344 13.7227 9.78711 13.543 10.0137C13.3672 10.2363 13.1445 10.4102 12.875 10.5352C12.6094 10.6562 12.3066 10.7168 11.9668 10.7168C11.5215 10.7168 11.1367 10.5977 10.8125 10.3594C10.4883 10.1211 10.2383 9.78125 10.0625 9.33984C9.89062 8.89844 9.80469 8.37695 9.80469 7.77539V7.76367C9.80469 7.1582 9.89062 6.63672 10.0625 6.19922C10.2383 5.75781 10.4883 5.41992 10.8125 5.18555C11.1367 4.94727 11.5195 4.82812 11.9609 4.82812C12.2969 4.82812 12.5996 4.89453 12.8691 5.02734C13.1426 5.16016 13.3691 5.34766 13.5488 5.58984C13.7285 5.82812 13.8477 6.10547 13.9062 6.42188L13.9121 6.46289H15.6289V6.38672C15.5742 5.79297 15.3828 5.26562 15.0547 4.80469C14.7266 4.34375 14.2949 3.98242 13.7598 3.7207C13.2285 3.45898 12.6289 3.32812 11.9609 3.32812C11.1406 3.32812 10.4336 3.50781 9.83984 3.86719C9.25 4.22266 8.79492 4.73242 8.47461 5.39648C8.1543 6.06055 7.99414 6.84961 7.99414 7.76367V7.77539C7.99414 8.68945 8.1543 9.47852 8.47461 10.1426C8.79492 10.8066 9.25195 11.3184 9.8457 11.6777C10.4395 12.0371 11.1445 12.2168 11.9609 12.2168ZM20.9609 12.2168C21.793 12.2168 22.5137 12.0371 23.123 11.6777C23.7324 11.3145 24.2012 10.8008 24.5293 10.1367C24.8613 9.47266 25.0273 8.68555 25.0273 7.77539V7.76367C25.0273 6.85352 24.8613 6.06641 24.5293 5.40234C24.1973 4.73828 23.7266 4.22656 23.1172 3.86719C22.5117 3.50781 21.793 3.32812 20.9609 3.32812C20.1328 3.32812 19.4141 3.50781 18.8047 3.86719C18.1953 4.22656 17.7227 4.73828 17.3867 5.40234C17.0547 6.0625 16.8887 6.84961 16.8887 7.76367V7.77539C16.8887 8.68555 17.0527 9.47266 17.3809 10.1367C17.7129 10.8008 18.1836 11.3145 18.793 11.6777C19.4023 12.0371 20.125 12.2168 20.9609 12.2168ZM20.9609 10.7168C20.4961 10.7168 20.0938 10.5957 19.7539 10.3535C19.418 10.1113 19.1562 9.76953 18.9688 9.32812C18.7852 8.88672 18.6934 8.36914 18.6934 7.77539V7.76367C18.6934 7.16602 18.7871 6.64844 18.9746 6.21094C19.1621 5.76953 19.4258 5.42969 19.7656 5.19141C20.1055 4.94922 20.5039 4.82812 20.9609 4.82812C21.418 4.82812 21.8164 4.94922 22.1562 5.19141C22.4961 5.42969 22.7578 5.76953 22.9414 6.21094C23.1289 6.64844 23.2227 7.16602 23.2227 7.76367V7.77539C23.2227 8.36914 23.1289 8.88672 22.9414 9.32812C22.7578 9.76953 22.4961 10.1113 22.1562 10.3535C21.8164 10.5957 21.418 10.7168 20.9609 10.7168ZM26.709 12H28.2852V6.24609H29.1582L27.4766 3.7793L30.5703 12H31.6777L34.7773 3.7793L33.0898 6.24609H33.9629V12H35.5391V3.54492H33.5117L31.1797 9.73242H31.0742L28.7363 3.54492H26.709V12ZM38.4805 9.33398H41.082C41.6758 9.33398 42.1953 9.21484 42.6406 8.97656C43.0859 8.73828 43.4316 8.40234 43.6777 7.96875C43.9277 7.53516 44.0527 7.02734 44.0527 6.44531V6.43359C44.0527 5.85547 43.9277 5.34961 43.6777 4.91602C43.4316 4.48242 43.0859 4.14648 42.6406 3.9082C42.1953 3.66602 41.6758 3.54492 41.082 3.54492H38.4805V4.94531H40.6484C41.1562 4.94531 41.5508 5.07422 41.832 5.33203C42.1172 5.58984 42.2598 5.95898 42.2598 6.43945V6.45117C42.2598 6.93164 42.1172 7.30273 41.832 7.56445C41.5508 7.82227 41.1562 7.95117 40.6484 7.95117H38.4805V9.33398ZM37.5957 12H39.3652V3.54492H37.5957V12Z" fill="white"/>
</svg>
