<svg width="154" height="154" viewBox="0 0 154 154" fill="none" xmlns="http://www.w3.org/2000/svg">
<path d="M73.1512 3.84876L3.84876 73.1512C1.72315 75.2769 1.72315 78.7231 3.84876 80.8488L73.1512 150.151C75.2768 152.277 78.7231 152.277 80.8488 150.151L150.151 80.8488C152.277 78.7231 152.277 75.2769 150.151 73.1512L80.8488 3.84876C78.7231 1.72315 75.2768 1.72315 73.1512 3.84876Z" fill="#00E6F5"/>
<path d="M73.1512 3.84876L3.84876 73.1512C1.72315 75.2769 1.72315 78.7231 3.84876 80.8488L73.1512 150.151C75.2768 152.277 78.7231 152.277 80.8488 150.151L150.151 80.8488C152.277 78.7231 152.277 75.2769 150.151 73.1512L80.8488 3.84876C78.7231 1.72315 75.2768 1.72315 73.1512 3.84876Z" fill="#39FAFF"/>
<path d="M73.2694 3.73063L3.73062 73.2694C1.67026 75.3297 1.67026 78.6703 3.73062 80.7306L73.2694 150.269C75.3297 152.33 78.6703 152.33 80.7306 150.269L150.269 80.7306C152.33 78.6703 152.33 75.3297 150.269 73.2694L80.7306 3.73062C78.6703 1.67026 75.3297 1.67026 73.2694 3.73063Z" fill="#FF76AE"/>
<path d="M75.1345 11.7141L11.7139 75.1347C10.6838 76.1649 10.6838 77.8351 11.7139 78.8653L75.1345 142.286C76.1647 143.316 77.8349 143.316 78.8651 142.286L142.286 78.8653C143.316 77.8351 143.316 76.1649 142.286 75.1347L78.8651 11.7141C77.8349 10.684 76.1647 10.684 75.1345 11.7141Z" fill="#FF0B63"/>
<path d="M74.8304 17.236L17.6275 74.4389C16.5973 75.4691 16.5973 77.1393 17.6275 78.1695C18.6577 79.1997 20.328 79.1997 21.3581 78.1695L78.561 20.9667C79.5912 19.9365 79.5912 18.2662 78.561 17.236C77.5308 16.2059 75.8605 16.2059 74.8304 17.236Z" fill="#FCC5E6"/>
<g style="mix-blend-mode:multiply" opacity="0.5">
<path d="M142.622 72.1987L72.1977 142.623C70.7908 144.03 68.786 144.487 66.9922 143.995L73.2617 150.264C75.3193 152.322 78.6607 152.322 80.7271 150.264L150.263 80.7281C152.321 78.6705 152.321 75.3291 150.263 73.2627L143.994 66.9932C144.486 68.787 144.038 70.7918 142.622 72.1987V72.1987Z" fill="#C42A74"/>
</g>
<circle cx="77" cy="77" r="25" fill="white"/>
</svg>
