<svg width="51" height="15" viewBox="0 0 51 15" fill="none" xmlns="http://www.w3.org/2000/svg">
<rect width="51" height="15" rx="7.5" fill="#8422FF"/>
<path d="M11.3379 12.2168C12.041 12.2168 12.6465 12.1055 13.1543 11.8828C13.666 11.6562 14.0586 11.3398 14.332 10.9336C14.6094 10.5234 14.748 10.0391 14.748 9.48047V9.47461C14.748 9.0332 14.6582 8.65625 14.4785 8.34375C14.2988 8.03125 14.0195 7.77148 13.6406 7.56445C13.2656 7.35742 12.7793 7.19336 12.1816 7.07227L11.2852 6.89062C10.7891 6.78906 10.4297 6.65234 10.207 6.48047C9.98828 6.30469 9.87891 6.08008 9.87891 5.80664V5.80078C9.87891 5.58984 9.93945 5.4082 10.0605 5.25586C10.1816 5.09961 10.3516 4.97852 10.5703 4.89258C10.7891 4.80664 11.043 4.76367 11.332 4.76367C11.6289 4.76367 11.8887 4.80859 12.1113 4.89844C12.3379 4.98438 12.5176 5.10352 12.6504 5.25586C12.7871 5.4082 12.873 5.58594 12.9082 5.78906L12.9199 5.85938H14.584L14.5781 5.7832C14.543 5.31055 14.3926 4.89062 14.127 4.52344C13.8613 4.15234 13.4922 3.86133 13.0195 3.65039C12.5508 3.43555 11.9883 3.32812 11.332 3.32812C10.707 3.32812 10.1523 3.4375 9.66797 3.65625C9.18359 3.87109 8.80273 4.17383 8.52539 4.56445C8.24805 4.95508 8.10938 5.41211 8.10938 5.93555V5.94141C8.10938 6.58203 8.30859 7.10742 8.70703 7.51758C9.10547 7.92773 9.74414 8.22266 10.623 8.40234L11.5137 8.58398C12.041 8.69336 12.416 8.83203 12.6387 9C12.8652 9.16797 12.9785 9.39062 12.9785 9.66797V9.67383C12.9785 9.88867 12.9102 10.0801 12.7734 10.248C12.6406 10.4121 12.4551 10.541 12.2168 10.6348C11.9785 10.7285 11.7012 10.7754 11.3848 10.7754C11.0566 10.7754 10.7656 10.7305 10.5117 10.6406C10.2578 10.5508 10.0547 10.4277 9.90234 10.2715C9.75391 10.1113 9.66797 9.92578 9.64453 9.71484L9.63867 9.65625H7.93359L7.93945 9.75C7.97461 10.25 8.13281 10.6855 8.41406 11.0566C8.69922 11.4238 9.08984 11.709 9.58594 11.9121C10.082 12.1152 10.666 12.2168 11.3379 12.2168ZM16.4238 12H18.1934V8.4375H22.002V12H23.7715V3.54492H22.002V6.97852H18.1934V3.54492H16.4238V12ZM25.8223 12H27.5918V3.54492H25.8223V12ZM29.6426 12H31.4121V8.67188H34.8516V7.27148H31.4121V5.00391H35.1797V3.54492H29.6426V12ZM38.8652 12H40.6348V5.00391H43.1719V3.54492H36.3281V5.00391H38.8652V12Z" fill="white"/>
</svg>
